<svg xmlns="http://www.w3.org/2000/svg" xmlns:xlink="http://www.w3.org/1999/xlink" width="181.568" height="47.395" viewBox="0 0 181.568 47.395"><defs><style>.a,.c{fill:#00a988;}.a,.b{fill-rule:evenodd;}.b{fill:#a6ff00;}.d{mix-blend-mode:multiply;isolation:isolate;fill:url(#a);}</style><linearGradient id="a" x1="0.017" y1="0.808" x2="0.992" y2="0.375" gradientUnits="objectBoundingBox"><stop offset="0" stop-color="#00a988" stop-opacity="0.698"/><stop offset="1" stop-color="#00a988" stop-opacity="0.051"/></linearGradient></defs><g transform="translate(-97.383 -144.875)"><g transform="translate(97.383 144.875)"><path class="a" d="M147.049,165.167c3.146,1.06,4.705,4.748,3.482,8.239s-4.765,5.462-7.911,4.4-4.705-4.748-3.482-8.238S143.9,164.108,147.049,165.167Z" transform="translate(-126.582 -159.006)"/><path class="b" d="M97.383,210.378a30.8,30.8,0,0,0,.815,7.034c1.828,7.731,6.794,14.587,15.5,14.587,4.867,0,11.776-3.8,15.187-5.714,1.948-1.1,2.553-1.885,6.956-.051,9.857,4.105,23.963,11.805,24.177-6.569.107-9.172-6.135-18.544-13.225-18.544-5.966,0-10.975,4.471-18.068,8.583-7.4,4.292-14.465,8.521-20.283,8.521C100.27,218.225,97.383,213.2,97.383,210.378Z" transform="translate(-97.383 -184.604)"/><g transform="translate(0 18.341)"><path class="c" d="M108.442,222.613c4.315,0,9.316-2.327,14.631-5.28-7.307-4.123-12.853-10-18.639-10a7.234,7.234,0,0,0-7.051,7.433h0C97.383,217.584,100.27,222.613,108.442,222.613Z" transform="translate(-97.383 -207.332)"/></g><path class="b" d="M218.314,144.875c4.092-.006,7.585,3.614,7.8,8.087s-2.924,8.1-7.016,8.109-7.585-3.614-7.8-8.087S214.223,144.881,218.314,144.875Z" transform="translate(-177.838 -144.875)"/><g transform="translate(31.502 34.857)"><path class="d" d="M211.613,270.344c7.99,3.327,18.771,9.015,22.682,1.266.919-1.851.64-8.039-8.529-8.039-9.227,0-18.262,5.143-21.109,6.824C206.605,269.3,207.21,268.51,211.613,270.344Z" transform="translate(-204.657 -263.571)"/></g></g><g transform="translate(169.152 150.747)"><g transform="translate(0.211)"><path class="c" d="M351.5,174.123l-.906-.3c-.4-.144-.554-.064-.738.336a2.445,2.445,0,0,1-2.566,1.486c-1.728,0-2.683-.815-2.683-2.285v-3.531c0-1.47.956-2.269,2.683-2.269a2.428,2.428,0,0,1,2.566,1.47c.151.383.319.463.721.335l.922-.3c.369-.128.486-.367.352-.7-.654-1.774-2.18-2.668-4.562-2.668-3.069,0-4.8,1.582-4.8,4.154v3.5c0,2.6,1.727,4.17,4.8,4.17q3.6,0,4.578-2.684A.5.5,0,0,0,351.5,174.123Z" transform="translate(-342.495 -165.447)"/><path class="c" d="M387.5,176.134c-1.711,0-2.868.559-3.472,1.662-.185.32-.084.559.285.719l.671.271c.386.128.47.1.721-.24a1.984,1.984,0,0,1,1.761-.767c1.208,0,1.677.543,1.677,1.582v.448c-.956-.048-1.493-.08-1.61-.08-2.734,0-3.807.671-3.807,2.572a2.317,2.317,0,0,0,.8,1.949,4.864,4.864,0,0,0,2.935.639,8.454,8.454,0,0,0,3.019-.415c.47-.192.6-.352.6-.911v-4.138C391.094,177.236,389.9,176.134,387.5,176.134Zm1.644,6.87c0,.112-.067.176-.184.224a8.93,8.93,0,0,1-1.677.128c-1.224,0-1.576-.352-1.576-1.07,0-.7.4-1.039,1.61-1.039.05,0,.654.032,1.828.08Z" transform="translate(-371.622 -172.826)"/><path class="c" d="M424.821,176.134h-.537a10.387,10.387,0,0,0-3.12.479c-.537.208-.654.4-.654.911v6.631c0,.367.134.5.52.5h.922c.386,0,.5-.128.5-.5v-5.944a.171.171,0,0,1,.168-.192,5.757,5.757,0,0,1,1.593-.192h.6c.386,0,.52-.128.52-.5v-.7C425.342,176.246,425.207,176.134,424.821,176.134Z" transform="translate(-397.601 -172.826)"/><path class="c" d="M449.16,172.338h-1.912V170.9c0-.367-.134-.479-.52-.479h-.906c-.386,0-.52.112-.52.479v1.438h-1.157c-.386,0-.5.112-.5.479v.735c0,.367.117.5.5.5H445.3v3.275a3.627,3.627,0,0,0,.872,2.812,4.234,4.234,0,0,0,2.969.7c.4-.016.537-.128.537-.511v-.735c0-.384-.134-.5-.537-.5a2.247,2.247,0,0,1-1.493-.352,2.005,2.005,0,0,1-.4-1.486v-3.211h1.912c.386,0,.52-.128.52-.5v-.735C449.68,172.45,449.546,172.338,449.16,172.338Z" transform="translate(-413.939 -168.791)"/><path class="c" d="M476.915,167.835h.554a.266.266,0,0,0,.3-.3c0-.4.134-.607.4-.607a1.9,1.9,0,0,1,.956.447,2.091,2.091,0,0,0,1.208.463c.989,0,1.425-.511,1.425-1.789,0-.208-.1-.3-.319-.3h-.537c-.218,0-.319.1-.319.3,0,.4-.134.607-.386.607a2,2,0,0,1-.939-.463,2.173,2.173,0,0,0-1.275-.447c-.922,0-1.392.511-1.392,1.789C476.6,167.739,476.7,167.835,476.915,167.835Z" transform="translate(-437.216 -165.486)"/><path class="c" d="M476.6,176.134c-1.711,0-2.868.559-3.472,1.662-.184.32-.084.559.285.719l.671.271c.386.128.469.1.721-.24a1.984,1.984,0,0,1,1.761-.767c1.207,0,1.677.543,1.677,1.582v.448c-.956-.048-1.492-.08-1.61-.08-2.734,0-3.807.671-3.807,2.572a2.317,2.317,0,0,0,.805,1.949,4.863,4.863,0,0,0,2.935.639,8.452,8.452,0,0,0,3.019-.415c.47-.192.6-.352.6-.911v-4.138C480.189,177.236,479,176.134,476.6,176.134Zm1.643,6.87c0,.112-.067.176-.184.224a8.923,8.923,0,0,1-1.677.128c-1.224,0-1.576-.352-1.576-1.07,0-.7.4-1.039,1.61-1.039.051,0,.654.032,1.828.08Z" transform="translate(-434.553 -172.826)"/><path class="c" d="M512.608,176.134c-2.465,0-3.858,1.2-3.858,3.2v2.365c0,2,1.392,3.2,3.858,3.2,2.482,0,3.874-1.2,3.874-3.2v-2.365C516.482,177.332,515.09,176.134,512.608,176.134Zm1.929,5.56c0,.959-.7,1.518-1.929,1.518s-1.912-.559-1.912-1.518v-2.365c0-.975.688-1.518,1.912-1.518s1.929.543,1.929,1.518Z" transform="translate(-459.927 -172.826)"/><path class="c" d="M570.677,164.871h-.923c-.385,0-.5.128-.5.5v3.02a11.851,11.851,0,0,0-2-.208c-2.331,0-3.505,1.166-3.505,3.339v2.189c0,2.157,1.208,3.227,3.64,3.227a9.386,9.386,0,0,0,3.136-.511c.537-.208.671-.367.671-.879V165.366C571.2,165,571.063,164.871,570.677,164.871Zm-1.426,10.018a.188.188,0,0,1-.134.176,6.279,6.279,0,0,1-1.543.176c-1.258,0-1.879-.527-1.879-1.6v-2.077c0-1.134.638-1.694,1.929-1.694a8.007,8.007,0,0,1,1.627.208Z" transform="translate(-498.776 -164.871)"/><path class="c" d="M607.313,181.1c.5,0,.755-.224.755-.687v-.975c0-1.933-1.325-3.307-3.874-3.307-2.532,0-3.891,1.214-3.891,3.451v1.885c0,2.093,1.241,3.419,3.858,3.419q2.642,0,3.623-1.534c.252-.367.185-.623-.2-.8l-.587-.3c-.4-.208-.587-.176-.855.192a2.229,2.229,0,0,1-1.979.847c-1.224,0-1.912-.559-1.912-1.6V181.1Zm-5.065-1.774c0-1.038.687-1.63,1.945-1.63,1.275,0,1.929.591,1.929,1.63v.352h-3.874Z" transform="translate(-524.594 -172.826)"/></g><g transform="translate(0 16.028)"><path class="c" d="M502.929,223.535a25.244,25.244,0,0,0-7.7,1.19c0,2.644,0,13.883,0,15.52,0,3.191,1.842,5.6,8.672,5.6a11.072,11.072,0,0,0,11.109-11.156C515.017,228.787,510.585,223.535,502.929,223.535Zm.984,16.432c-2.62.063-2.946-.422-2.946-1.853,0-1.158.018-8.374.018-8.374a7.5,7.5,0,0,1,2.3-.415c3.86,0,5.9,2.6,5.9,5.266A5.349,5.349,0,0,1,503.913,239.967Z" transform="translate(-450.168 -222.335)"/><path class="c" d="M664.3,232.418c-2.457-.619-4.781-.867-4.928-1.917-.1-.718.759-1.336,2.537-1.336a17.446,17.446,0,0,1,9.19,2.373v-3.5c0-2.131-2.323-4.443-8.262-4.443-6.645,0-9.369,3.3-9.369,6.995,0,4.136,3.067,5.537,7.039,6.382,4.514.961,5.323,1.362,5.323,2.1,0,1.014-1.507,1.251-2.535,1.251a17.561,17.561,0,0,1-9.19-2.373s-.012,2.621-.014,3.494c0,2.131,2.164,4.446,7.982,4.446,5.645,0,8.485-2.391,9.3-5.1C673.462,233.848,665.918,232.826,664.3,232.418Z" transform="translate(-561.935 -222.38)"/><path class="c" d="M421.368,223.494a11.162,11.162,0,1,0,11.162,11.162A11.162,11.162,0,0,0,421.368,223.494Zm0,16.493a5.331,5.331,0,1,1,5.331-5.331A5.331,5.331,0,0,1,421.368,239.987Z" transform="translate(-390.111 -222.306)"/><path class="c" d="M581.864,223.494a11.162,11.162,0,1,0,11.162,11.162A11.162,11.162,0,0,0,581.864,223.494Zm0,16.493a5.331,5.331,0,1,1,5.331-5.331A5.331,5.331,0,0,1,581.864,239.987Z" transform="translate(-503.475 -222.306)"/><path class="c" d="M361.911,219.45s-13.673,1.668-18.229,2.238a2.181,2.181,0,0,0-1.9,2.165V226.4h7.077v13.359c0,2.216,1.409,3.005,3.219,3.005h2.634V226.4h3.935a3.268,3.268,0,0,0,3.268-3.268Z" transform="translate(-341.777 -219.45)"/></g></g></g></svg>